<svg id="Layer_1" enable-background="new 0 0 512 512" height="512" viewBox="0 0 512 512" width="512" xmlns="http://www.w3.org/2000/svg"><g><path d="m512 50.921v-.658c0-9.177-7.421-16.617-16.574-16.617h-68.506c-9.153 0-16.574 7.44-16.574 16.617s7.421 16.617 16.574 16.617h29.155l-69.777 69.957-127.524-131.851c-6.36-6.577-17.159-6.657-23.618-.182l-230.302 230.896c-6.473 6.489-6.473 17.01 0 23.499 6.393 6.411 17.045 6.411 23.439 0l218.401-218.964 127.524 131.851c6.307 6.522 17.213 6.605 23.618.182l81.016-81.226v27.903c0 9.177 7.421 16.617 16.574 16.617s16.574-7.44 16.574-16.617v-68.013c0-.004 0-.007 0-.011z" fill="#ff5781"/><g><path d="m316.253 487.106c0 13.749 31.141 24.894 69.555 24.894s69.555-11.146 69.555-24.894c0-7.427 0-39.7 0-39.7h-139.11z" fill="#ffb700"/><path d="m414.155 447.405v39.7c0 11.181-20.597 20.64-48.951 23.783 6.511.722 13.43 1.111 20.604 1.111 38.414 0 69.555-11.146 69.555-24.894 0-7.427 0-39.7 0-39.7z" fill="#f5b000"/><path d="m316.253 447.347c0 13.749 31.141 24.894 69.555 24.894s69.555-11.146 69.555-24.894c0-7.427 0-39.7 0-39.7h-139.11z" fill="#ffe563"/><path d="m414.155 407.647v39.7c0 11.181-20.597 20.64-48.951 23.783 6.511.722 13.43 1.111 20.604 1.111 38.414 0 69.555-11.146 69.555-24.894 0-7.427 0-39.7 0-39.7z" fill="#ffdc2e"/><path d="m316.253 407.647c0 13.749 31.141 24.894 69.555 24.894s69.555-11.146 69.555-24.894c0-7.427 0-39.7 0-39.7h-139.11z" fill="#ffb700"/><path d="m414.155 367.947v39.7c0 11.181-20.597 20.64-48.951 23.783 6.511.722 13.43 1.111 20.604 1.111 38.414 0 69.555-11.146 69.555-24.894 0-7.427 0-39.7 0-39.7z" fill="#f5b000"/><path d="m316.253 367.947c0 13.749 31.141 24.894 69.555 24.894s69.555-11.146 69.555-24.894c0-7.427 0-39.7 0-39.7h-139.11c0-.001 0 25.951 0 39.7z" fill="#ffe563"/><path d="m414.155 328.246v39.7c0 11.181-20.597 20.64-48.951 23.783 6.511.722 13.43 1.111 20.604 1.111 38.414 0 69.555-11.146 69.555-24.894 0-7.427 0-39.7 0-39.7z" fill="#ffdc2e"/><g><path d="m316.253 328.246c0 13.749 31.141 24.894 69.555 24.894s69.555-11.146 69.555-24.894c0-7.427 0-39.7 0-39.7h-139.11z" fill="#ffb700"/><path d="m414.155 288.546v39.7c0 11.181-20.597 20.64-48.951 23.783 6.511.722 13.43 1.111 20.604 1.111 38.414 0 69.555-11.146 69.555-24.894 0-7.427 0-39.7 0-39.7z" fill="#f5b000"/><ellipse cx="385.808" cy="288.546" fill="#ffe563" rx="69.555" ry="24.894"/></g><path d="m177.144 487.106c0 13.749 31.141 24.894 69.555 24.894s69.555-11.146 69.555-24.894c0-7.427 0-39.7 0-39.7h-139.11z" fill="#ffe563"/><path d="m275.046 447.405v39.7c0 11.181-20.597 20.64-48.951 23.783 6.511.722 13.43 1.111 20.604 1.111 38.414 0 69.555-11.146 69.555-24.894 0-7.427 0-39.7 0-39.7z" fill="#ffdc2e"/><path d="m177.144 447.347c0 13.749 31.141 24.894 69.555 24.894s69.555-11.146 69.555-24.894c0-7.427 0-39.7 0-39.7h-139.11z" fill="#ffb700"/><path d="m275.046 407.647v39.7c0 11.181-20.597 20.64-48.951 23.783 6.511.722 13.43 1.111 20.604 1.111 38.414 0 69.555-11.146 69.555-24.894 0-7.427 0-39.7 0-39.7z" fill="#f5b000"/><path d="m177.144 407.647c0 13.749 31.141 24.894 69.555 24.894s69.555-11.146 69.555-24.894c0-7.427 0-39.7 0-39.7h-139.11z" fill="#ffe563"/><path d="m275.046 367.947v39.7c0 11.181-20.597 20.64-48.951 23.783 6.511.722 13.43 1.111 20.604 1.111 38.414 0 69.555-11.146 69.555-24.894 0-7.427 0-39.7 0-39.7z" fill="#ffdc2e"/><path d="m177.144 367.947c0 13.749 31.141 24.894 69.555 24.894s69.555-11.146 69.555-24.894c0-7.427 0-39.7 0-39.7h-139.11c0-.001 0 25.951 0 39.7z" fill="#ffb700"/><path d="m275.046 328.246v39.7c0 11.181-20.597 20.64-48.951 23.783 6.511.722 13.43 1.111 20.604 1.111 38.414 0 69.555-11.146 69.555-24.894 0-7.427 0-39.7 0-39.7z" fill="#f5b000"/><path d="m177.144 328.246c0 13.749 31.141 24.894 69.555 24.894s69.555-11.146 69.555-24.894c0-7.427 0-39.7 0-39.7h-139.11z" fill="#ffe563"/><path d="m275.046 288.546v39.7c0 11.181-20.597 20.64-48.951 23.783 6.511.722 13.43 1.111 20.604 1.111 38.414 0 69.555-11.146 69.555-24.894 0-7.427 0-39.7 0-39.7z" fill="#ffdc2e"/><path d="m177.144 287.916c0 13.749 31.141 24.894 69.555 24.894s69.555-11.146 69.555-24.894c0-7.427 0-39.7 0-39.7h-139.11c0-.001 0 25.951 0 39.7z" fill="#ffb700"/><path d="m275.046 248.215v39.7c0 11.181-20.597 20.64-48.951 23.783 6.511.722 13.43 1.111 20.604 1.111 38.414 0 69.555-11.146 69.555-24.894 0-7.427 0-39.7 0-39.7z" fill="#f5b000"/><g><path d="m177.144 247.585c0 13.749 31.141 24.894 69.555 24.894s69.555-11.146 69.555-24.894c0-7.427 0-39.7 0-39.7h-139.11z" fill="#ffe563"/><path d="m275.046 207.885v39.7c0 11.181-20.597 20.64-48.951 23.783 6.511.722 13.43 1.111 20.604 1.111 38.414 0 69.555-11.146 69.555-24.894 0-7.427 0-39.7 0-39.7z" fill="#ffdc2e"/><ellipse cx="246.699" cy="207.885" fill="#ffb700" rx="69.555" ry="24.894"/></g><g><path d="m38.035 487.106c0 13.749 31.141 24.894 69.555 24.894s69.555-11.146 69.555-24.894c0-7.427 0-39.7 0-39.7h-139.11z" fill="#ffb700"/></g><path d="m135.937 447.405v39.7c0 11.181-20.597 20.64-48.951 23.783 6.511.722 13.43 1.111 20.604 1.111 38.414 0 69.555-11.146 69.555-24.894 0-7.427 0-39.7 0-39.7z" fill="#f5b000"/><path d="m38.035 447.347c0 13.749 31.141 24.894 69.555 24.894s69.555-11.146 69.555-24.894c0-7.427 0-39.7 0-39.7h-139.11z" fill="#ffe563"/><path d="m135.937 407.647v39.7c0 11.181-20.597 20.64-48.951 23.783 6.511.722 13.43 1.111 20.604 1.111 38.414 0 69.555-11.146 69.555-24.894 0-7.427 0-39.7 0-39.7z" fill="#ffdc2e"/><g><path d="m38.035 407.647c0 13.749 31.141 24.894 69.555 24.894s69.555-11.146 69.555-24.894c0-7.427 0-39.7 0-39.7h-139.11z" fill="#ffb700"/><path d="m135.937 367.947v39.7c0 11.181-20.597 20.64-48.951 23.783 6.511.722 13.43 1.111 20.604 1.111 38.414 0 69.555-11.146 69.555-24.894 0-7.427 0-39.7 0-39.7z" fill="#f5b000"/><ellipse cx="107.59" cy="367.947" fill="#ffe563" rx="69.555" ry="24.894"/></g></g></g></svg>